<?xml version="1.0" standalone="no"?>
<svg xmlns="http://www.w3.org/2000/svg" viewBox="0 0 196.56 29" width="196.56" height="29"><g fill="#3fc105" color="#3fc105" transform="translate(0, 0) scale(0.29)"><svg width="100.0" height="100.0" x="0.0" y="0.0" viewBox="0 0 100 100"><path d="M70.648,19.656c0,0-1.046,2.302-0.837,4.602c0.209,2.301,2.72,3.137,2.72,3.137s1.198-3.301,0.326-5.232  C71.986,20.231,70.648,19.656,70.648,19.656z"></path><path d="M83.446,54.733c-2.389-16.672-11.125-22.944-11.125-22.944s4.637,8.959-5.199,17.475c-0.864-2.816-2.02-5.574-3.306-8.243  c-4.519-9.386,0.648-14.836-0.229-23.53C62.71,8.798,57.907,0,51.997,0c0,0,5.604,4.851,1.738,13.557  c-1.941,4.995-7.05,6.853-11.926,14.748c-4.877,7.896-3.548,12.527-4.742,16.324c-6.14-6.857,1.758-19.799-3.657-26.229  c0.736,9.673-7.393,10.371-13.807,25.942C8.483,78.702,23.347,100,51.234,100C73.741,100.001,87.327,83.114,83.446,54.733z   M74.502,71.697C71.534,85.456,62.943,91.01,49.704,91.01c-12.618,0-22.993-10.372-22.993-26.962  c-0.408-9.561,2.315-14.933,5.774-19.409c0.312,8.324,3.597,11.317,6.759,13.155c1.001-8.692,11.094-13.275,11.472-24.641  c2.645,0,10.945,10.266,9.207,18.61c-1.328,6.374,3.202,12.083,3.202,12.083c6.379-0.388,8.813-9.521,8.813-9.521  S76.28,61.347,74.502,71.697z"></path></svg></g><line x1="41" y1="1" x2="41" y2="28" stroke="#000000" stroke-linecap="round"></line><path fill="#000000" fill-rule="nonzero" d="M3.48 17.69L3.48 17.69L3.60 10.61Q2.02 10.34 2.02 9.50L2.02 9.50Q2.02 9.12 2.23 8.90L2.23 8.90Q2.47 8.66 2.70 8.66Q2.93 8.66 3.60 8.81L3.60 8.81L3.53 4.94Q1.92 4.75 0.96 4.00Q0 3.24 0 2.11L0 2.11Q0 1.37 0.60 0.68Q1.20 0 2.41 0Q3.62 0 4.34 0.90Q5.06 1.80 5.23 3.31L5.23 3.31Q9.41 3.31 12.89 0.65L12.89 0.65Q13.46 0.26 13.68 0.26L13.68 0.26Q14.26 0.26 14.35 0.89L14.35 0.89Q14.35 1.90 12.90 2.88Q11.45 3.86 9.34 4.48Q7.22 5.09 5.33 5.09L5.33 5.09L5.33 9.05Q6.12 9.17 7.21 9.17Q8.30 9.17 9.77 8.89Q11.23 8.62 11.41 8.62Q11.59 8.62 11.82 8.80Q12.05 8.98 12.05 9.29L12.05 9.29Q12.05 9.96 10.33 10.39Q8.62 10.82 6.60 10.82L6.60 10.82Q5.98 10.82 5.33 10.78L5.33 10.78L5.45 17.69Q5.45 19.08 4.46 19.08Q3.48 19.08 3.48 17.69ZM3.48 3.22L3.48 3.22Q3.29 1.56 2.38 1.56L2.38 1.56Q2.09 1.56 1.87 1.75Q1.66 1.94 1.66 2.18L1.66 2.18Q1.66 3 3.48 3.22ZM17.62 1.44L17.62 1.44Q18.60 1.44 18.60 2.59L18.60 2.59Q18.60 3.12 18.25 3.59Q17.90 4.06 17.42 4.06L17.42 4.06Q16.42 4.06 16.42 2.83L16.42 2.83Q16.42 2.26 16.76 1.85Q17.11 1.44 17.62 1.44ZM18.41 7.80L18.41 7.80L18.29 12.84L18.41 17.88Q18.41 19.08 17.50 19.08Q16.58 19.08 16.58 17.88L16.58 17.88L16.70 12.84L16.58 7.80Q16.58 6.60 17.50 6.60Q18.41 6.60 18.41 7.80ZM23.76 13.34L23.76 13.34L23.83 17.86Q23.83 19.08 22.92 19.08L22.92 19.08Q21.82 19.08 21.82 17.44Q21.82 15.79 22.30 12.65L22.30 12.65Q22.30 11.64 22.09 9.83Q21.89 8.02 21.89 7.63Q21.89 7.25 22.15 6.92Q22.42 6.60 22.82 6.60Q23.23 6.60 23.50 6.92Q23.76 7.25 23.76 7.58Q23.76 7.92 23.75 8.66Q23.74 9.41 23.74 9.70L23.74 9.70Q24.19 8.50 25.22 7.54L25.22 7.54Q26.28 6.60 27.32 6.60Q28.37 6.60 28.98 7.02Q29.59 7.44 29.59 7.97Q29.59 8.50 29.33 8.78Q29.06 9.07 28.64 9.07Q28.22 9.07 27.72 8.64L27.72 8.64Q27.26 8.18 26.95 8.18L26.95 8.18Q26.16 8.18 25.10 9.90Q24.05 11.62 23.76 13.34ZM40.92 13.03L40.92 13.03Q40.92 14.78 41.17 15.95Q41.42 17.11 41.81 17.26L41.81 17.26Q41.95 17.33 42.16 17.35Q42.36 17.38 42.44 17.42Q42.53 17.47 42.53 17.62L42.53 17.62Q42.53 18.29 42.17 18.68Q41.81 19.08 41.12 19.08Q40.44 19.08 40.06 18.20Q39.67 17.33 39.67 15.91L39.67 15.91Q39.02 17.30 37.87 18.19Q36.72 19.08 35.27 19.08Q33.82 19.08 32.78 18.12L32.78 18.12Q30.86 16.34 30.86 13.10L30.86 13.10Q30.86 10.49 32.38 8.54Q33.89 6.60 36.26 6.60L36.26 6.60Q38.06 6.60 39.38 7.82L39.38 7.82Q39.38 6.60 40.30 6.60L40.30 6.60Q41.40 6.60 41.40 8.24Q41.40 9.89 40.92 13.03ZM39.53 13.25L39.53 13.25L39.41 9.55Q37.99 8.16 36.41 8.16Q34.82 8.16 33.70 9.58Q32.57 10.99 32.57 13.00Q32.57 15 33.31 16.26Q34.06 17.52 35.38 17.52Q36.70 17.52 37.81 16.34Q38.93 15.17 39.53 13.25ZM55.32 11.28L55.32 11.28L55.20 15.05L55.20 16.08Q55.25 17.06 55.68 17.26L55.68 17.26Q55.85 17.30 56.06 17.34Q56.28 17.38 56.36 17.42Q56.45 17.47 56.45 17.62L56.45 17.62Q56.45 18.24 56.05 18.66Q55.66 19.08 55.13 19.08L55.13 19.08Q54.24 19.08 53.88 18.38Q53.52 17.69 53.52 16.25L53.52 16.25L53.62 11.83Q53.62 10.18 52.91 9.18Q52.20 8.18 50.98 8.18Q49.75 8.18 48.61 9.54Q47.47 10.90 46.99 12.65L46.99 12.65L47.06 17.86Q47.06 19.08 46.15 19.08L46.15 19.08Q45.05 19.08 45.05 17.44Q45.05 15.79 45.53 12.65L45.53 12.65Q45.53 11.64 45.32 9.82Q45.12 7.99 45.12 7.61Q45.12 7.22 45.38 6.91Q45.65 6.60 46.06 6.60Q46.46 6.60 46.73 6.91Q46.99 7.22 46.99 7.58Q46.99 7.94 46.98 8.66Q46.97 9.38 46.97 9.65L46.97 9.65Q48.72 6.60 51.29 6.60L51.29 6.60Q53.21 6.60 54.26 7.98Q55.32 9.36 55.32 11.28ZM60.12 1.44L60.12 1.44Q61.10 1.44 61.10 2.59L61.10 2.59Q61.10 3.12 60.76 3.59Q60.41 4.06 59.93 4.06L59.93 4.06Q58.92 4.06 58.92 2.83L58.92 2.83Q58.92 2.26 59.27 1.85Q59.62 1.44 60.12 1.44ZM60.91 7.80L60.91 7.80L60.79 12.84L60.91 17.88Q60.91 19.08 60 19.08Q59.09 19.08 59.09 17.88L59.09 17.88L59.21 12.84L59.09 7.80Q59.09 6.60 60 6.60Q60.91 6.60 60.91 7.80ZM73.90 13.03L73.90 13.03Q73.90 14.78 74.15 15.95Q74.40 17.11 74.78 17.26L74.78 17.26Q74.93 17.33 75.13 17.35Q75.34 17.38 75.42 17.42Q75.50 17.47 75.50 17.62L75.50 17.62Q75.50 18.29 75.14 18.68Q74.78 19.08 74.10 19.08Q73.42 19.08 73.03 18.20Q72.65 17.33 72.65 15.91L72.65 15.91Q72 17.30 70.85 18.19Q69.70 19.08 68.24 19.08Q66.79 19.08 65.76 18.12L65.76 18.12Q63.84 16.34 63.84 13.10L63.84 13.10Q63.84 10.49 65.35 8.54Q66.86 6.60 69.24 6.60L69.24 6.60Q71.04 6.60 72.36 7.82L72.36 7.82Q72.36 6.60 73.27 6.60L73.27 6.60Q74.38 6.60 74.38 8.24Q74.38 9.89 73.90 13.03ZM72.50 13.25L72.50 13.25L72.38 9.55Q70.97 8.16 69.38 8.16Q67.80 8.16 66.67 9.58Q65.54 10.99 65.54 13.00Q65.54 15 66.29 16.26Q67.03 17.52 68.35 17.52Q69.67 17.52 70.79 16.34Q71.90 15.17 72.50 13.25ZM83.18 9.31L83.18 9.31Q83.26 8.47 83.83 8.47L83.83 8.47Q84.22 8.47 84.82 8.86L84.82 8.86L84.67 1.82Q84.67 1.30 84.96 0.95Q85.25 0.60 85.66 0.60Q86.06 0.60 86.35 0.94Q86.64 1.27 86.64 1.82Q86.64 2.38 86.58 3.89Q86.52 5.40 86.52 9.50L86.52 9.50Q87.55 9.86 89.28 9.86L89.28 9.86Q93.12 9.86 94.99 7.51L94.99 7.51L94.87 2.21Q94.87 0.60 95.93 0.60L95.93 0.60Q96.77 0.60 96.94 1.34L96.94 1.34Q97.13 2.04 97.13 3.61Q97.13 5.18 96.67 8.35L96.67 8.35L96.84 17.86Q96.86 18.60 96.36 18.91L96.36 18.91Q96.12 19.08 95.86 19.08L95.86 19.08L95.35 18.91Q94.85 18.60 94.87 17.86L94.87 17.86L95.02 10.56L95.02 9.79Q94.10 10.56 92.44 11.02Q90.77 11.47 89.24 11.47Q87.72 11.47 86.52 11.23L86.52 11.23L86.64 17.86Q86.66 18.60 86.16 18.91L86.16 18.91Q85.90 19.08 85.66 19.08L85.66 19.08L85.15 18.91Q84.65 18.60 84.67 17.86L84.67 17.86L84.77 10.82Q83.18 10.30 83.18 9.31ZM102.07 12.86Q102.07 14.86 103.18 16.25Q104.28 17.64 105.95 17.64Q107.62 17.64 108.78 16.24Q109.94 14.83 109.94 12.84Q109.94 10.85 108.83 9.44Q107.71 8.04 106.07 8.04Q104.42 8.04 103.22 9.46L103.22 9.46Q102.07 10.87 102.07 12.86ZM101.95 17.36Q100.37 15.53 100.37 12.86Q100.37 10.20 101.98 8.34Q103.58 6.48 106.03 6.48Q108.48 6.48 110.06 8.32Q111.65 10.15 111.65 12.83Q111.65 15.50 110.03 17.35Q108.41 19.20 105.97 19.20Q103.54 19.20 101.95 17.36ZM131.81 11.28L131.81 11.28L131.69 15.05L131.69 16.08Q131.74 17.06 132.17 17.26L132.17 17.26Q132.34 17.30 132.55 17.34Q132.77 17.38 132.85 17.42Q132.94 17.47 132.94 17.62L132.94 17.62Q132.94 18.24 132.54 18.66Q132.14 19.08 131.62 19.08L131.62 19.08Q130.73 19.08 130.37 18.38Q130.01 17.69 130.01 16.25L130.01 16.25L130.10 11.83Q130.10 10.18 129.46 9.18Q128.81 8.18 127.68 8.18Q126.55 8.18 125.47 9.55Q124.39 10.92 123.96 12.65L123.96 12.65L124.03 17.86Q124.03 19.08 123.12 19.08L123.12 19.08Q122.02 19.08 122.02 17.44Q122.02 15.79 122.50 12.65L122.50 12.65Q122.50 8.18 120.05 8.18L120.05 8.18Q118.92 8.18 117.84 9.55Q116.76 10.92 116.33 12.65L116.33 12.65L116.40 17.86Q116.40 19.08 115.49 19.08L115.49 19.08Q114.38 19.08 114.38 17.44Q114.38 15.79 114.86 12.65L114.86 12.65Q114.86 11.64 114.66 9.82Q114.46 7.99 114.46 7.61Q114.46 7.22 114.72 6.91Q114.98 6.60 115.39 6.60Q115.80 6.60 116.06 6.91Q116.33 7.22 116.33 7.58Q116.33 7.94 116.32 8.66Q116.30 9.38 116.30 9.65L116.30 9.65Q117.91 6.60 120.38 6.60L120.38 6.60Q121.78 6.60 122.68 7.42Q123.58 8.23 123.94 9.65L123.94 9.65Q125.54 6.60 128.02 6.60L128.02 6.60Q129.84 6.60 130.80 7.97L130.80 7.97Q131.81 9.34 131.81 11.28ZM141.41 8.04L141.41 8.04Q139.82 8.04 138.76 9.23Q137.69 10.42 137.35 12L137.35 12Q138.65 12.38 140.27 12.38Q141.89 12.38 142.87 11.83Q143.86 11.28 143.86 10.32Q143.86 9.36 143.20 8.70Q142.54 8.04 141.41 8.04ZM140.38 13.90L140.38 13.90Q139.13 13.90 137.33 13.54L137.33 13.54Q137.47 15.24 138.59 16.44Q139.70 17.64 141.19 17.64Q142.68 17.64 143.64 16.91Q144.60 16.18 144.90 16.18Q145.20 16.18 145.38 16.36Q145.56 16.54 145.56 16.80L145.56 16.80Q145.56 17.47 144.18 18.34Q142.80 19.20 141.19 19.20L141.19 19.20Q138.70 19.20 137.22 17.44Q135.74 15.67 135.65 13.22L135.65 13.22Q134.38 12.82 134.38 11.98L134.38 11.98Q134.38 11.42 134.78 11.26L134.78 11.26Q134.93 11.21 135.16 11.21Q135.38 11.21 135.79 11.42L135.79 11.42Q136.34 9.24 137.80 7.86Q139.25 6.48 141.20 6.48Q143.16 6.48 144.36 7.56Q145.56 8.64 145.56 10.38Q145.56 12.12 144.07 13.01Q142.58 13.90 140.38 13.90Z" transform="translate(51, 4.9)"></path></svg>